<mxfile host="65bd71144e">
    <diagram id="GIjD4_sEgYJ7Q91Cwiaw" name="Page-1">
        <mxGraphModel dx="765" dy="713" grid="1" gridSize="10" guides="1" tooltips="1" connect="1" arrows="1" fold="1" page="1" pageScale="1" pageWidth="827" pageHeight="1169" math="0" shadow="0">
            <root>
                <mxCell id="0"/>
                <mxCell id="1" parent="0"/>
                <mxCell id="18" value="" style="rounded=0;whiteSpace=wrap;html=1;fillColor=#ffe6cc;strokeColor=#d79b00;" parent="1" vertex="1">
                    <mxGeometry x="100" y="140" width="450" height="240" as="geometry"/>
                </mxCell>
                <mxCell id="19" value="&lt;span style=&quot;font-size: 14px ; background-color: rgb(255 , 255 , 255)&quot;&gt;&lt;font color=&quot;#000000&quot;&gt;couponTitle&lt;/font&gt;&lt;/span&gt;" style="rounded=1;whiteSpace=wrap;html=1;fillColor=#f5f5f5;strokeColor=#666666;fontColor=#333333;" vertex="1" parent="1">
                    <mxGeometry x="310" y="160" width="210" height="60" as="geometry"/>
                </mxCell>
                <mxCell id="22" value="&lt;span style=&quot;color: rgb(51 , 51 , 51) ; font-family: &amp;#34;__symbol&amp;#34; , , &amp;#34;segoe ui&amp;#34; , &amp;#34;roboto&amp;#34; , &amp;#34;pingfang sc&amp;#34; , &amp;#34;hiragino sans gb&amp;#34; , &amp;#34;microsoft yahei&amp;#34; , &amp;#34;simsun&amp;#34; , sans-serif ; font-size: 14px ; background-color: rgb(255 , 255 , 255)&quot;&gt;couponValue&lt;/span&gt;" style="rounded=0;whiteSpace=wrap;html=1;fillColor=#f5f5f5;strokeColor=#666666;fontColor=#333333;" vertex="1" parent="1">
                    <mxGeometry x="110" y="170" width="120" height="60" as="geometry"/>
                </mxCell>
                <mxCell id="23" value="&lt;span style=&quot;color: rgb(51 , 51 , 51) ; font-family: &amp;#34;__symbol&amp;#34; , , &amp;#34;segoe ui&amp;#34; , &amp;#34;roboto&amp;#34; , &amp;#34;pingfang sc&amp;#34; , &amp;#34;hiragino sans gb&amp;#34; , &amp;#34;microsoft yahei&amp;#34; , &amp;#34;simsun&amp;#34; , sans-serif ; font-size: 14px ; background-color: rgb(255 , 255 , 255)&quot;&gt;couponTypeDesc&lt;/span&gt;" style="rounded=0;whiteSpace=wrap;html=1;fillColor=#f5f5f5;strokeColor=#666666;fontColor=#333333;" vertex="1" parent="1">
                    <mxGeometry x="110" y="270" width="120" height="60" as="geometry"/>
                </mxCell>
                <mxCell id="27" value="&lt;span style=&quot;font-size: 14px ; background-color: rgb(255 , 255 , 255)&quot;&gt;&lt;font color=&quot;#000000&quot;&gt;couponUseCondition&lt;/font&gt;&lt;/span&gt;" style="rounded=1;whiteSpace=wrap;html=1;fillColor=#f5f5f5;strokeColor=#666666;fontColor=#333333;" vertex="1" parent="1">
                    <mxGeometry x="310" y="230" width="210" height="60" as="geometry"/>
                </mxCell>
                <mxCell id="28" value="&lt;span style=&quot;font-size: 14px ; font-style: normal ; font-weight: 400 ; letter-spacing: normal ; text-indent: 0px ; text-transform: none ; word-spacing: 0px ; background-color: rgb(255 , 255 , 255) ; display: inline ; float: none&quot;&gt;&lt;font color=&quot;#000000&quot;&gt;endTime&lt;/font&gt;&lt;/span&gt;" style="rounded=1;whiteSpace=wrap;html=1;fillColor=#f5f5f5;strokeColor=#666666;fontColor=#333333;" vertex="1" parent="1">
                    <mxGeometry x="310" y="300" width="210" height="60" as="geometry"/>
                </mxCell>
            </root>
        </mxGraphModel>
    </diagram>
</mxfile>